<svg id="twitter-8" xmlns="http://www.w3.org/2000/svg" width="30" height="30" viewBox="0 0 30 30">
  <path id="Fill-184" d="M15,0A15,15,0,1,0,30,15,15,15,0,0,0,15,0" fill="#41a1f2"/>
  <path id="Fill-184-path" d="M13.464,3.037c.006.132.009.264.009.4A8.7,8.7,0,0,1,4.718,12.19,8.713,8.713,0,0,1,0,10.808a6.326,6.326,0,0,0,.734.042A6.173,6.173,0,0,0,4.556,9.533,3.08,3.08,0,0,1,1.681,7.4a3.108,3.108,0,0,0,1.39-.053A3.078,3.078,0,0,1,.6,4.327V4.287A3.062,3.062,0,0,0,2,4.673,3.08,3.08,0,0,1,1.044.563,8.738,8.738,0,0,0,7.387,3.779,3.079,3.079,0,0,1,12.631.972,6.158,6.158,0,0,0,14.586.226a3.093,3.093,0,0,1-1.353,1.7A6.175,6.175,0,0,0,15,1.444a6.264,6.264,0,0,1-1.536,1.593" transform="translate(7.5 8.904)" fill="#fff"/>
</svg>
